HIERARCHY
ROOT Hips
{
  OFFSET 0 0 0
  CHANNELS 6 Xposition Yposition Zposition Zrotation Xrotation Yrotation
  JOINT Spine
  {
    OFFSET 0 10.1816 0.131521
    CHANNELS 3 Zrotation Xrotation Yrotation
    JOINT Spine1
    {
      OFFSET 0 10.0835 -1.0008
      CHANNELS 3 Zrotation Xrotation Yrotation
      JOINT Spine2
      {
        OFFSET 0 9.10001 -1.37342
        CHANNELS 3 Zrotation Xrotation Yrotation
        JOINT Neck
        {
          OFFSET 0 16.6717 -2.51617
          CHANNELS 3 Zrotation Xrotation Yrotation
          JOINT Head
          {
            OFFSET 0 9.61788 1.68501
            CHANNELS 3 Zrotation Xrotation Yrotation
            End Site
            {
              OFFSET 0 0 0
            }
          }
        }
        JOINT LeftShoulder
        {
          OFFSET 4.57045 10.946 -2.62799
          CHANNELS 3 Zrotation Xrotation Yrotation
          JOINT LeftArm
          {
            OFFSET 10.5924 -0.524583 -2.23212
            CHANNELS 3 Zrotation Xrotation Yrotation
            JOINT LeftForeArm
            {
              OFFSET 27.8415 -8.94286e-05 3.74589e-05
              CHANNELS 3 Zrotation Xrotation Yrotation
              JOINT LeftHand
              {
                OFFSET 28.3288 -1.74407e-05 3.78045e-05
                CHANNELS 3 Zrotation Xrotation Yrotation
                End Site
                {
                  OFFSET 0 0 0
                }
              }
            }
          }
        }
        JOINT RightShoulder
        {
          OFFSET -4.56997 10.9462 -2.62802
          CHANNELS 3 Zrotation Xrotation Yrotation
          JOINT RightArm
          {
            OFFSET -10.5928 -0.524798 -2.2321
            CHANNELS 3 Zrotation Xrotation Yrotation
            JOINT RightForeArm
            {
              OFFSET -27.8415 -3.30792e-05 1.16763e-05
              CHANNELS 3 Zrotation Xrotation Yrotation
              JOINT RightHand
              {
                OFFSET -28.3288 0 5.5816e-05
                CHANNELS 3 Zrotation Xrotation Yrotation
                End Site
                {
                  OFFSET 0 0 0
                }
              }
            }
          }
        }
      }
    }
  }
  JOINT LeftUpLeg
  {
    OFFSET 8.20778 -6.75171 -1.59956
    CHANNELS 3 Zrotation Xrotation Yrotation
    JOINT LeftLeg
    {
      OFFSET 0 -44.3705 0.284643
      CHANNELS 3 Zrotation Xrotation Yrotation
      JOINT LeftFoot
      {
        OFFSET 0 -44.4279 -2.98219
        CHANNELS 3 Zrotation Xrotation Yrotation
        JOINT LeftToeBase
        {
          OFFSET 0 -8.72867 10.7106
          CHANNELS 3 Zrotation Xrotation Yrotation
          End Site
          {
            OFFSET 0 0 0
          }
        }
      }
    }
  }
  JOINT RightUpLeg
  {
    OFFSET -8.2078 -6.75166 -1.59956
    CHANNELS 3 Zrotation Xrotation Yrotation
    JOINT RightLeg
    {
      OFFSET 0 -44.3705 0.286156
      CHANNELS 3 Zrotation Xrotation Yrotation
      JOINT RightFoot
      {
        OFFSET 0 -44.4277 -2.98379
        CHANNELS 3 Zrotation Xrotation Yrotation
        JOINT RightToeBase
        {
          OFFSET 0 -8.72867 10.7106
          CHANNELS 3 Zrotation Xrotation Yrotation
          End Site
          {
            OFFSET 0 0 0
          }
        }
      }
    }
  }
}
MOTION
Frames:	6
Frame Time:	0.0333333
-23.465113 98.084500 167.732311 -0.142978 -2.283478 -6.162547 1.40186 6.98413 1.78399 2.61167 14.007 3.43275 2.61169 14.007 3.43275 -2.4192 24.3954 -7.48449 1.51535 -17.6128 -9.25487 -3.19116 -0.571563 8.34557 -48.2258 8.86613 39.5724 14.2809 -10.2942 -32.5573 18.4045 -26.3852 15.0138 7.67131 -0.376498 -5.84397 38.748 9.13728 -33.0594 -4.02542 -12.1491 67.6403 -29.9655 11.8413 8.7851 7.08657 -41.2315 4.47981 -4.17212 37.9068 3.24035 -11.1893 -10.624 -0.0433411 8.86495e-07 -5.17003e-07 2.83161e-08 -11.0675 -41.1628 -10.9186 4.02663 37.0565 -7.74169 6.44457 -11.0527 -3.37272 -1.29114e-06 -2.52699e-06 6.74489e-06  
-24.334920 88.660400 173.364685 1.559687 -2.277318 -5.830673 0.933921 7.30825 1.61178 1.67901 14.6393 3.1411 1.67902 14.6393 3.1411 -1.93908 22.0105 -7.20325 0.938795 -17.3441 -8.61163 -6.22961 -0.776395 8.79821 -55.9285 8.9072 33.6259 13.0015 -6.96434 -25.0167 20.9622 -30.5528 19.5659 10.1318 -0.807917 -8.0327 46.9467 8.8205 -28.6714 -8.56866 -14.9129 56.1932 -26.7588 1.65002 0.555938 5.34869 -49.3826 9.05095 -0.585258 50.2797 -0.943835 0.803243 0.759597 -0.970514 8.86495e-07 -5.17003e-07 2.83161e-08 -13.8576 -48.9791 -13.6396 0.632558 49.3929 -3.25967 8.87468 2.95091 -2.52715 -1.29114e-06 -2.52699e-06 6.74489e-06  
-24.964279 76.620200 178.695421 0.241539 -4.791034 -4.454245 1.25629 8.85726 1.05939 2.38805 17.7346 1.95491 2.38804 17.7346 1.95492 -1.97689 16.6923 -6.39558 0.556472 -17.9104 -7.56921 -10.0847 -1.01542 9.02863 -60.2883 7.10233 22.0864 10.9183 -5.01591 -21.5813 17.766 -32.6044 19.8656 13.9758 -0.885864 -7.55088 48.0399 7.17216 -19.1748 -10.7633 -14.4773 49.4136 -27.4573 -4.76684 -2.1502 6.95505 -62.0644 7.01374 -3.06462 78.1999 3.4655 0.333955 -6.64027 0.29899 8.86495e-07 -5.17003e-07 2.83161e-08 -18.8859 -60.6934 -18.1451 -0.582568 78.2302 -2.97149 4.02839 -8.5403 -2.2824 -1.29114e-06 -2.52699e-06 6.74489e-06  
-25.454184 68.903000 183.267306 0.422655 -5.397826 -5.183698 1.07326 9.98863 1.00931 2.01157 19.9933 1.86878 2.0116 19.9933 1.86876 -0.750375 16.5897 -5.73226 -1.15425 -22.6251 -6.37595 -15.398 -0.360963 4.65692 -60.7762 9.13864 8.12029 11.2074 -5.9055 -24.6763 19.5781 -32.838 19.3508 15.8886 -0.41578 -5.05454 48.0236 7.04334 -5.93381 -12.114 -14.55 46.1994 -26.3002 -2.54972 -1.44586 9.02237 -68.3984 11.4108 146.05 85.1373 -144.955 -1.40104 -15.5004 0.631553 8.86495e-07 -5.17003e-07 2.83161e-08 -23.879 -67.1107 -24.6863 -142.966 84.6201 139.844 3.90071 -18.0474 -1.70704 -1.29114e-06 -2.52699e-06 6.74489e-06  
-26.096249 61.427300 187.355770 -0.168488 -6.699353 -6.691397 0.91066 10.868 1.18368 1.63304 21.7517 2.25017 1.63305 21.7517 2.25016 -0.163072 16.9883 -5.17432 -1.38008 -23.0954 -5.56352 -15.8432 0.492941 0.744969 -58.3735 14.4512 -6.02213 13.6502 -9.01962 -30.2635 19.2884 -31.4618 15.8217 14.9247 0.350511 -1.51637 46.1459 9.28244 5.97336 -12.8746 -14.9288 45.1857 -26.187 -2.82983 -0.48484 14.6995 -73.0357 16.0844 168.915 71.4557 -167.736 -3.90037 -22.5874 0.500492 8.86495e-07 -5.17003e-07 2.83161e-08 -26.1009 -72.4772 -27.2209 -166.106 71.325 163.186 4.96802 -24.5491 -1.52854 -1.29114e-06 -2.52699e-06 6.74489e-06  
-26.585954 55.328800 190.522646 -1.298597 -8.071416 -7.499154 0.90883 11.7772 1.15994 1.62099 23.5694 2.19629 1.62103 23.5694 2.19627 0.397142 16.7577 -4.17169 -2.55794 -25.1313 -4.31458 -13.8416 1.28943 -3.39846 -53.8177 11.8296 -18.4706 13.4482 -12.6882 -40.2948 17.4028 -22.1246 10.655 12.6943 1.08336 2.46828 43.1695 6.77263 16.8268 -11.994 -15.8239 48.8262 -26.8572 -0.645658 1.38555 21.3495 -76.2554 22.0524 171.041 60.6129 -169.562 -4.83274 -27.085 0.718864 8.86495e-07 -5.17003e-07 2.83161e-08 -28.3253 -76.0339 -30.7239 -168.95 60.8753 165.894 5.78115 -28.642 -1.69145 -1.29114e-06 -2.52699e-06 6.74489e-06  
